<?xml version="1.0" encoding="UTF-8"?>
<svg id="Layer_1_xA0_Image" xmlns="http://www.w3.org/2000/svg" version="1.1" viewBox="0 0 384 117.1">
  <!-- Generator: Adobe Illustrator 29.1.0, SVG Export Plug-In . SVG Version: 2.1.0 Build 142)  -->
  <defs>
    <style>
      .st0 {
        fill: #032140;
      }

      .st1 {
        display: none;
        fill: #fff;
      }
    </style>
  </defs>
  <path class="st1" d="M.5,117.1h-.5V0h384v16.3l-4.4-.2-.3.3v11.9l-10.2-12.2c-1.2.2-2.6.4-3.7,0v20.6h4.6v-12.2l10.1,12.2h4v80.5h-199.6L137.3.2h-37.3l47.3,116.9h-16.3L84.2.2h-37.4l47,116.9h-56.1l10.3-25.9h20.4L40.1,17.7.5,117.1ZM327.1,15.9c-11.8,1.3-12.9,17.8-1.6,20.7s9.1.2,11.5-3.3l-2.8-2.5c-1.2.8-2.3,1.9-3.8,2.1-9.9,1.4-10.4-12.1-2.4-12.9s4.1.7,6.2,2.1l2.8-2.7c-2.3-2.9-6.3-3.8-9.9-3.4ZM230.7,36.6l-9.2-20.5-4.6.4-9,20.1h4.7l1.9-4.3c.2-.3.4-.2.7-.3,2.6-.3,5.9.2,8.6,0l2.2,4.5h4.7ZM238.7,16.3h-3.7c0,0-.2-.3-.4-.2v20.6h4.3v-11.7l5.9,9.3c.4.4,2.1.5,2.5-.1l5.8-9.4v12h4.6l-.2-20.6-3.7.2-7.4,12.5c-.5.1-.3-.2-.4-.3-2.4-3.2-4.7-7.9-6.9-11.5s-.2-.4-.2-.6ZM279.2,19.9v-3.8c-.2,0-.3.2-.4.2h-15v20.4h15.8v-3.8h-11v-4.8h9.4v-3.6h-9.4v-4.6h10.6ZM312.5,16c-.2,0-.3.2-.4.2h-3.8c0,0-.2-.3-.4-.2v20.6h4.6v-20.6ZM361.5,36.6l-9.2-20.5-4.6.4-9,20.1h4.7l1.9-4.3c.2-.3.4-.2.7-.3,2.6-.3,5.9.2,8.6,0l2.2,4.5h4.7ZM302.9,36.6l-4.3-6.6c5.1-2.5,5.6-10,.5-12.7s-2.4-1.1-2.8-1.1h-11.4v20.4h4.4l.4-.4v-5.4h4.2l4.1,5.7h4.9ZM282.7,48.2c-13,1.6-12,21.9,2.8,21s6.3-1.5,7.4-3.8l-2.9-2.6c-3.2,4.1-10.7,2.7-11.6-2.6s3-9,8.4-7.9,2.2,1.5,3.4,2l2.8-2.7c-2.5-3-6.6-3.9-10.4-3.4ZM208,68.7h5l1.8-4.3c2.7.2,6-.4,8.6,0s1.5,3.4,2.6,4.3h4.7l-9.2-20.4-4.6.3-9,20.1ZM238.3,48.4h-3.7v20.4h4.3v-11.7l5.7,9.2c.6.6,1.5.3,2.3.4l6.1-9.8v12h4.6l-.2-20.4h-3.7l-7.8,12.7-7.6-12.7ZM268.6,48.4h-4.8v20.4h4.8v-20.4ZM317.6,68.7l-9-20.1-4.6-.2-9.2,20.4h4.7l1.8-4.3h9.6c0,.1,1.7,4.3,1.7,4.3h5ZM332.6,48.4c-3.6-.3-7.7.3-11.4,0v20.4h13.3c.4,0,2.7-.9,3.2-1.2,3.5-2.2,2.9-8.1-1.1-9.2-.2-.3,1-1.1,1.3-1.5,1.6-1.9,1.6-5-.2-6.7s-3.6-1.8-5-1.9ZM349.7,48.4h-4.6v20.4h14.9v-3.8h-10.3v-16.5ZM379.4,48.4h-15.4v20.4h15.8v-3.6h-11v-4.8h9.4v-3.6h-9.4v-4.6h10.6v-3.8ZM226.7,98.8v-7.8h-2.9v6.7c-6.6,3.6-15-1.5-12.5-9.3,1.7-5.5,9.7-7.1,13.6-2.9h.3c.2-.9,1.4-1,1.4-2-6.2-5.8-17.7-2.7-18.7,6.2s11.1,15,18.7,9.1ZM265,80.5c-12.8.5-14,18.5-1.7,20.7,16.2,2.9,17.8-21.4,1.7-20.7ZM242.4,80.7c-2.8-.2-5.9.2-8.8,0v20.6h2.9v-6.2h5.9s.2-.2.4-.1l4.6,6.2h3.1s-4.6-6.7-4.6-6.7l2.8-2c3.8-5.8.4-11.2-6.2-11.7ZM296.7,80.7v12.8c0,1.1-1.1,3.5-2,4.2-3.4,2.7-9,1-9.5-3.7s.3-8.8,0-12.9c-.2-.6-2.7-.5-3-.2.2,4.6-1.2,13.5,1.6,17.4,3.6,5,13.4,4.1,15.2-2.3s.3-10.1.6-14.7l-.4-.6h-2.5ZM309.9,95.1h6.1c2.4,0,5.7-1.8,6.8-4,2.4-5.1-1.6-10.4-7-10.4h-8.8v20.6c.9-.1,2.2.3,2.9-.4v-5.9Z"/>
  <polygon class="st0" points="184.4 117.1 147.3 117.1 100 .2 137.3 .2 184.4 117.1"/>
  <polygon class="st0" points="93.8 117.1 46.8 .2 84.2 .2 131 117.1 93.8 117.1"/>
  <polygon class="st0" points=".5 117.1 40.1 17.7 68.4 91.3 48 91.3 37.7 117.1 .5 117.1"/>
  <path class="st0" d="M384,36.6h-4c0,0-10.1-12.2-10.1-12.2v12.2h-4.6v-20.6c1.1.4,2.5.3,3.7,0l10.2,12.2v-11.9l.3-.3,4.4.2v20.4Z"/>
  <path class="st0" d="M238.7,16.3c0,.2,0,.4.2.6,2.2,3.6,4.5,8.3,6.9,11.5s0,.4.4.3l7.4-12.5,3.7-.2.2,20.6h-4.6v-12l-5.8,9.4c-.4.6-2.1.5-2.5.1l-5.9-9.3v11.7h-4.3v-20.6c.2,0,.3.2.4.2h3.7Z"/>
  <path class="st0" d="M238.3,48.4l7.6,12.7,7.8-12.7h3.7l.2,20.4h-4.6v-12l-6.1,9.8c-.8,0-1.7.2-2.3-.4l-5.7-9.2v11.7h-4.3v-20.4h3.7Z"/>
  <path class="st0" d="M332.6,48.4c1.4.1,4,.9,5,1.9,1.8,1.7,1.8,4.8.2,6.7s-1.5,1.1-1.3,1.5c4.1,1.1,4.6,7,1.1,9.2s-2.7,1.2-3.2,1.2h-13.3v-20.4c3.7.3,7.8-.3,11.4,0ZM326,56.8h6.1c.3,0,1.4-.7,1.7-1,1.1-1.5,0-3.8-1.9-3.8h-5.9v4.8ZM326,65.4h6.1c.4,0,1.9-.5,2.3-.8,1.6-1.3.9-3.5-1-4.1s-1.5-.4-1.6-.4h-5.9v5.3Z"/>
  <path class="st0" d="M302.9,36.6h-4.9l-4.1-5.7h-4.2v5.4l-.4.4h-4.4v-20.4h11.4c.4,0,2.3.8,2.8,1.1,5.1,2.8,4.6,10.2-.5,12.7l4.3,6.6ZM289.7,27.1h5.4c1.4,0,2.8-2.1,2.8-3.5s-1.4-3.5-2.8-3.5h-5.4v6.9Z"/>
  <path class="st0" d="M279.2,19.9h-10.6v4.6h9.4v3.6h-9.4v4.8h11v3.8h-15.8v-20.4h15c0,0,.2-.3.4-.2v3.8Z"/>
  <polygon class="st0" points="379.4 48.4 379.4 52.2 368.9 52.2 368.9 56.8 378.2 56.8 378.2 60.4 368.9 60.4 368.9 65.1 379.9 65.1 379.9 68.7 364.1 68.7 364.1 48.4 379.4 48.4"/>
  <path class="st0" d="M317.6,68.7h-5l-1.7-4.2h-9.6c0-.1-1.8,4.2-1.8,4.2h-4.7l9.2-20.4,4.6.2,9,20.1ZM309.2,60.8l-2.9-7.7-3.4,7.7h6.2Z"/>
  <path class="st0" d="M208,68.7l9-20.1,4.6-.3,9.2,20.4h-4.7c-1.1-.9-1.1-4.2-2.6-4.3-2.6-.3-5.9.2-8.6,0l-1.8,4.3h-5ZM222.6,60.8l-3.2-7.7-3.2,7.7h6.5Z"/>
  <path class="st0" d="M230.7,36.6h-4.7l-2.2-4.5c-2.7.2-6-.4-8.6,0s-.5,0-.7.3l-1.9,4.3h-4.7l9-20.1,4.6-.4,9.2,20.5ZM222.6,28.7c-1-2.2-1.7-5-2.8-7.1s-.4-.7-.5-.6l-3,7.2.3.5h6.1Z"/>
  <path class="st0" d="M361.5,36.6h-4.7l-2.2-4.5c-2.7.2-6-.4-8.6,0s-.5,0-.7.3l-1.9,4.3h-4.7l9-20.1,4.6-.4,9.2,20.5ZM353.3,28.7c-1-2.2-1.7-5.1-2.8-7.1s-.4-.7-.5-.6l-3,7.2.3.5h6.1Z"/>
  <path class="st0" d="M282.7,48.2c3.8-.5,7.8.4,10.4,3.4l-2.8,2.7c-1.2-.5-2.1-1.7-3.4-2-5.4-1.1-9.2,2.4-8.4,7.9s8.4,6.7,11.6,2.6l2.9,2.6c-1.1,2.4-4.9,3.7-7.4,3.8-14.8.9-15.8-19.4-2.8-21Z"/>
  <path class="st0" d="M327.1,15.9c3.5-.4,7.6.6,9.9,3.4l-2.8,2.7c-2-1.5-3.5-2.4-6.2-2.1-8.1.8-7.6,14.3,2.4,12.9s2.6-1.3,3.8-2.1l2.8,2.5c-2.4,3.6-7.6,4.3-11.5,3.3-11.3-2.8-10.2-19.3,1.6-20.7Z"/>
  <path class="st0" d="M242.4,80.7c6.6.6,10,5.9,6.2,11.7l-2.8,2,4.6,6.7h-3.1s-4.6-6.2-4.6-6.2c-.2,0-.3.1-.4.1h-5.9v6.2h-2.9v-20.6c2.8.2,5.9-.2,8.8,0ZM243.1,83.3c-2-.3-4.5.2-6.6,0v9.1h6.8c1.2,0,3.2-1.5,3.6-2.6,1.2-3-.7-6-3.8-6.5Z"/>
  <path class="st0" d="M265,80.5c16.1-.7,14.5,23.6-1.7,20.7-12.3-2.2-11.1-20.2,1.7-20.7ZM264.5,83.2c-9.9,1.1-8.8,16.3,1.6,15.7,10.4-.6,9.6-16.9-1.6-15.7Z"/>
  <path class="st0" d="M309.9,95.1v5.9c-.7.7-2,.2-2.9.4v-20.6h8.8c5.4,0,9.4,5.2,7,10.4s-4.3,4-6.8,4h-6.1ZM309.9,92.5h6.6c.1,0,1.5-.5,1.8-.6,2.8-1.4,3.1-5.9.4-7.6s-1.9-.9-2.2-.9h-6.6v9.1Z"/>
  <path class="st0" d="M226.7,98.8c-7.6,6-19.8,1.5-18.7-9.1s12.5-12,18.7-6.2c0,1-1.2,1.1-1.4,2h-.3c-3.9-4.2-11.9-2.6-13.6,2.9-2.4,7.8,5.9,12.9,12.5,9.3v-6.7h2.9v7.8Z"/>
  <path class="st0" d="M296.7,80.7h2.5s.4.6.4.6c-.3,4.7.7,10.2-.6,14.7s-11.6,7.2-15.2,2.3c-2.8-3.8-1.3-12.7-1.6-17.4.2-.4,2.8-.5,3,.2.4,4.1-.4,8.8,0,12.9s6.1,6.4,9.5,3.7,2-3.1,2-4.2v-12.8Z"/>
  <polygon class="st0" points="349.7 48.4 349.7 64.9 360 64.9 360 68.7 345.1 68.7 345.1 48.4 349.7 48.4"/>
  <rect class="st0" x="263.8" y="48.4" width="4.8" height="20.4"/>
  <path class="st0" d="M312.5,16v20.6h-4.6v-20.6c.2,0,.3.2.4.2h3.8c0,0,.2-.3.4-.2Z"/>
  <path class="st1" d="M326,65.4v-5.3h5.9c0,0,1.4.3,1.6.4,1.9.6,2.6,2.8,1,4.1s-1.9.8-2.3.8h-6.1Z"/>
  <path class="st1" d="M326,56.8v-4.8h5.9c1.8,0,3,2.3,1.9,3.8s-1.4,1-1.7,1h-6.1Z"/>
  <path class="st1" d="M289.7,27.1v-6.9h5.4c1.4,0,2.8,2.1,2.8,3.5s-1.4,3.5-2.8,3.5h-5.4Z"/>
  <polygon class="st1" points="309.2 60.8 302.9 60.8 306.3 53.2 309.2 60.8"/>
  <polygon class="st1" points="222.6 60.8 216.1 60.8 219.3 53.2 222.6 60.8"/>
  <path class="st1" d="M222.6,28.7h-6.1l-.3-.5,3-7.2c.2-.1.4.4.5.6,1.1,2.1,1.8,4.9,2.8,7.1Z"/>
  <path class="st1" d="M353.3,28.7h-6.1l-.3-.5,3-7.2c.2-.1.4.4.5.6,1.1,2,1.9,4.9,2.8,7.1Z"/>
  <path class="st1" d="M243.1,83.3c3.2.4,5,3.5,3.8,6.5s-2.4,2.6-3.6,2.6h-6.8v-9.1c2.1.2,4.6-.3,6.6,0Z"/>
  <path class="st1" d="M264.5,83.2c11.2-1.2,12,15.2,1.6,15.7-10.4.6-11.5-14.7-1.6-15.7Z"/>
  <path class="st1" d="M309.9,92.5v-9.1h6.6c.3,0,1.9.7,2.2.9,2.6,1.7,2.4,6.1-.4,7.6s-1.7.6-1.8.6h-6.6Z"/>
</svg>