<?xml version="1.0" encoding="utf-8"?>
<!-- Generator: Adobe Illustrator 12.0.0, SVG Export Plug-In . SVG Version: 6.00 Build 51448)  -->
<!DOCTYPE svg PUBLIC "-//W3C//DTD SVG 1.1//EN" "http://www.w3.org/Graphics/SVG/1.1/DTD/svg11.dtd" [
	<!ENTITY ns_svg "http://www.w3.org/2000/svg">
	<!ENTITY ns_xlink "http://www.w3.org/1999/xlink">
]>
<svg  version="1.1" id="Layer_1" xmlns="&ns_svg;" xmlns:xlink="&ns_xlink;" width="725.67" height="366.598"
	 viewBox="0 0 725.67 366.598" overflow="visible" enable-background="new 0 0 725.67 366.598" xml:space="preserve">
<g>
	<polygon fill-rule="evenodd" clip-rule="evenodd" fill="#1D398D" points="0,0 725.67,0 725.67,366.598 0,366.598 0,0 	"/>
	<path fill-rule="evenodd" clip-rule="evenodd" fill="#FFFFFF" d="M279.836,302.902c-6.52-1.5-14.041-4.508-19.559-14.539
		c-5.516-7.023-32.596-82.25-32.596-82.25L171.01,50.148c-3.51-9.527-7.521-12.035-11.533-1.002L97.791,207.121
		c0,0-27.582,72.211-32.598,79.234c0,0-5.014,15.047-19.557,20.063c-7.021,2-5.016,12.531,2.506,12.531
		c4.516-2,51.656-1.5,59.178,0.508c8.025-2.508,6.52-11.539,2.508-14.047c-15.045-2.508-23.068-10.531-19.559-25.07l16.047-44.133
		c4.014-10.531,11.033-9.531,16.049-10.531h62.186c9.027,0,13.541,1.5,16.049,10.531l15.045,41.125c0,0,9.527,26.07-15.547,29.086
		c-6.018,0.5-4.514,14.039,2.508,13.539c10.531-1.008,52.156-2.508,61.184-0.5c2.006,0,11.533,2,18.053-1.508
		C284.852,315.941,285.854,304.41,279.836,302.902L279.836,302.902z M184.049,206.613h-58.172c-4.012,0.508-7.523-3.508-3.01-11.531
		l30.09-71.213c2.508-6.018,5.016-7.02,7.021,0.502l26.58,72.719C188.564,202.605,190.57,206.613,184.049,206.613L184.049,206.613z"
		/>
	<path fill-rule="evenodd" clip-rule="evenodd" fill="#FFFFFF" d="M683.541,188.059c-30.59,1.008-58.672,2.508-88.762,2.008
		c-4.012,0-4.012,1-5.52,2.008c-3.508,0-3.008,11.531,0.504,11.531c1.004,0.508,2.004,1.008,3.508,1.008
		c25.578-2.508,42.129,0,43.633,31.594v-1.008l0.5,30.594c0,0,1.504,10.531-2.004,21.563c-7.023,23.57-52.156,23.57-78.734,12.039
		c-35.609-15.547-63.691-50.148-67.703-89.766c-6.02-58.178,17.051-115.348,71.711-133.402c16.051-4.514,35.105-9.027,54.164,0
		c15.047,8.023,22.066,17.053,26.078,25.578c3.508,12.537,11.535,11.533,15.043,8.525c0-0.504,2.008-5.016,2.008-6.02l-2.508-50.652
		c-4.012-6.518-12.539-5.014-13.039-3.51c-2.004,2.008-4.012,4.014-6.016,5.016c-12.539,5.518-42.629-6.018-73.223,1.004
		c-40.117,9.025-65.195,22.566-90.77,58.174c-6.52,10.029-17.551,33.098-19.559,48.645c-3.512,28.08-3.512,69.205,15.547,102.807
		c21.563,37.109,61.184,54.164,101.805,58.672c33.598,3.516,66.199,0,95.785-15.039c2.508-1.508,2.508-4.516,3.008-7.523v-67.703
		c0-18.555,7.523-29.086,11.035-32.094c1.504,0,4.512-2.508,7.02-4.016C689.061,194.582,687.053,189.066,683.541,188.059
		L683.541,188.059z"/>
	<path fill-rule="evenodd" clip-rule="evenodd" fill="#FFFFFF" d="M656.463,109.826c0,0-0.504,0-0.504,0.504
		C655.959,110.33,655.959,110.33,656.463,109.826L656.463,109.826z"/>
	<path fill-rule="evenodd" clip-rule="evenodd" fill="#FFFFFF" d="M410.225,306.918c-24.07,0-31.594-9.031-32.598-20.563
		c-1-2.508-1-30.594-1-39.617V107.32c1-7.521,1-23.57,2.004-26.078c1.004-6.018,3.512-10.029,13.539-13.039l17.051-3.01
		c7.023-3.51,4.516-14.041-3.508-12.035c-10.031,1.504-89.77,2.006-94.783,0c-9.027,0.5-6.018,12.539-2.006,13.039l14.543,2.006
		c10.531,0,16.047,6.52,18.555,12.537c0.502,2.508,1.004,18.055,1.004,25.576v139.922c0,0-1.004,31.594-2.508,39.617
		c-1.504,6.516,2.508,19.555-31.594,23.57c-6.52,3.508-3.512,10.531,0,10.531c3.51,1,23.57,0.5,34.604-1.008
		c6.018-1.5,61.686-1,65.693,0C419.756,318.949,418.252,307.918,410.225,306.918L410.225,306.918z"/>
</g>
</svg>
